<?xml version="1.0" encoding="UTF-8"?>
<svg xmlns="http://www.w3.org/2000/svg" xmlns:xlink="http://www.w3.org/1999/xlink" width="225pt" height="225pt" viewBox="0 0 225 225" version="1.1">
<g id="surface1-46fab7e2">
<rect x="0" y="0" width="225" height="225" style="fill:rgb(0%,0%,0%);fill-opacity:1;stroke:none;"/>
<path style=" stroke:none;fill-rule:nonzero;fill:rgb(0%,0%,0%);fill-opacity:1;" d="M 37.5 187.5 L 187.5 187.5 L 187.5 37.5 L 37.5 37.5 Z M 37.5 187.5 "/>
<path style="fill:none;stroke-width:1.5;stroke-linecap:butt;stroke-linejoin:miter;stroke:rgb(100%,100%,100%);stroke-opacity:1;stroke-miterlimit:2;" d="M 59.088542 233.208333 L 62.171875 239.890625 L 65.255208 240.4375 L 68.333333 240.911458 L 71.416667 240.40625 L 74.5 240.776042 L 77.583333 240.895833 L 80.661458 240.859375 L 83.744792 240.828125 L 86.828125 240.854167 L 89.90625 240.786458 L 92.989583 240.901042 L 96.072917 240.901042 L 99.151042 240.885417 L 102.234375 240.838542 L 105.317708 240.661458 L 108.395833 240.885417 L 111.479167 240.484375 L 114.5625 239.557292 L 117.640625 239.848958 L 120.723958 225.557292 L 123.807292 239.541667 L 126.885417 239.776042 L 129.96875 239.760417 L 133.052083 236.84375 L 136.130208 233.885417 L 139.213542 238.46875 L 142.296875 237.875 L 145.375 239.484375 L 148.458333 240.765625 L 151.541667 239.895833 L 154.625 237.265625 L 157.703125 238.640625 L 160.786458 238.786458 L 163.869792 240.494792 L 166.947917 235.958333 L 170.03125 238.036458 L 173.114583 239.484375 L 176.192708 239.942708 L 179.276042 240.317708 L 182.359375 240.369792 L 185.4375 240.5 L 188.520833 240.572917 L 191.604167 240.5625 L 194.682292 240.901042 L 197.765625 240.833333 L 200.848958 240.890625 L 203.927083 240.895833 L 207.010417 240.901042 L 213.171875 240.901042 L 216.255208 240.90625 L 231.666667 240.90625 L 234.744792 240.911458 L 237.828125 240.90625 L 240.911458 240.90625 " transform="matrix(0.75,0,0,0.75,0,0)"/>
<path style="fill:none;stroke-width:1.5;stroke-linecap:butt;stroke-linejoin:miter;stroke:rgb(100%,100%,100%);stroke-opacity:1;stroke-miterlimit:2;" d="M 59.088542 228.536458 L 62.171875 235.286458 L 65.255208 235.864583 L 68.333333 235.703125 L 71.416667 236.03125 L 74.5 236.307292 L 77.583333 236.119792 L 80.661458 236.317708 L 83.744792 236.296875 L 86.828125 236.213542 L 89.90625 236.109375 L 92.989583 236.255208 L 96.072917 236.302083 L 99.151042 236.317708 L 102.234375 236.328125 L 105.317708 236.015625 L 108.395833 236.322917 L 111.479167 236.026042 L 114.5625 235.9375 L 117.640625 235.21875 L 120.723958 235.317708 L 123.807292 235.828125 L 126.885417 235.901042 L 129.96875 230.640625 L 133.052083 225.979167 L 136.130208 233.59375 L 139.213542 228.59375 L 142.296875 235.838542 L 145.375 234.46875 L 148.458333 236.25 L 151.541667 235.338542 L 154.625 236.21875 L 157.703125 235.317708 L 160.786458 235.151042 L 163.869792 236.328125 L 166.947917 231.963542 L 170.03125 235.484375 L 173.114583 236.25 L 176.192708 236.255208 L 179.276042 236.036458 L 182.359375 235.71875 L 185.4375 236.286458 L 188.520833 235.291667 L 191.604167 236.203125 L 194.682292 236.1875 L 197.765625 236.28125 L 200.848958 236.3125 L 203.927083 236.317708 L 207.010417 236.317708 L 210.09375 236.3125 L 213.171875 236.317708 L 222.416667 236.317708 L 225.5 236.322917 L 237.828125 236.322917 L 240.911458 236.328125 " transform="matrix(0.75,0,0,0.75,0,0)"/>
<path style="fill:none;stroke-width:1.5;stroke-linecap:butt;stroke-linejoin:miter;stroke:rgb(100%,100%,100%);stroke-opacity:1;stroke-miterlimit:2;" d="M 59.088542 228.546875 L 62.171875 230.697917 L 65.255208 230.697917 L 68.333333 231.3125 L 71.416667 231.208333 L 74.5 231.692708 L 77.583333 231.713542 L 80.661458 231.3125 L 83.744792 231.744792 L 86.828125 231.598958 L 89.90625 231.734375 L 92.989583 231.739583 L 96.072917 231.739583 L 99.151042 231.171875 L 102.234375 231.682292 L 105.317708 231.536458 L 108.395833 231.619792 L 111.479167 231.645833 L 114.5625 231.390625 L 117.640625 230.5 L 120.723958 228.578125 L 123.807292 230.901042 L 126.885417 229.479167 L 129.96875 231.458333 L 133.052083 225.546875 L 136.130208 230.177083 L 139.213542 228.03125 L 142.296875 230.864583 L 145.375 231.640625 L 148.458333 231.6875 L 151.541667 231.59375 L 154.625 231.505208 L 157.703125 230.9375 L 160.786458 230.869792 L 163.869792 230.953125 L 166.947917 230.057292 L 170.03125 222.630208 L 173.114583 231.619792 L 176.192708 230.114583 L 179.276042 231.53125 L 182.359375 231.526042 L 185.4375 231.671875 L 188.520833 231.713542 L 191.604167 231.5625 L 194.682292 231.6875 L 197.765625 231.729167 L 200.848958 231.697917 L 203.927083 231.723958 L 210.09375 231.734375 L 213.171875 231.734375 L 216.255208 231.744792 L 219.338542 231.739583 L 222.416667 231.739583 L 225.5 231.744792 L 240.911458 231.744792 " transform="matrix(0.75,0,0,0.75,0,0)"/>
<path style="fill:none;stroke-width:1.5;stroke-linecap:butt;stroke-linejoin:miter;stroke:rgb(100%,100%,100%);stroke-opacity:1;stroke-miterlimit:2;" d="M 59.088542 223.239583 L 62.171875 227.15625 L 65.255208 227.125 L 68.333333 226.411458 L 71.416667 226.90625 L 74.5 226.958333 L 77.583333 226.9375 L 80.661458 226.854167 L 83.744792 227.104167 L 86.828125 227.135417 L 89.90625 227.135417 L 92.989583 226.994792 L 96.072917 227.026042 L 99.151042 227.135417 L 102.234375 226.984375 L 105.317708 227.114583 L 108.395833 227.057292 L 111.479167 227.171875 L 114.5625 227.135417 L 117.640625 226.921875 L 120.723958 224.354167 L 123.807292 224.796875 L 126.885417 225.354167 L 129.96875 220.15625 L 133.052083 209.161458 L 136.130208 223.697917 L 139.213542 226.614583 L 142.296875 226.859375 L 145.375 226.578125 L 148.458333 226.963542 L 151.541667 226.583333 L 154.625 225.84375 L 157.703125 223.411458 L 160.786458 223.489583 L 163.869792 224.807292 L 166.947917 224.833333 L 170.03125 225.09375 L 173.114583 225.864583 L 176.192708 227.057292 L 179.276042 227.151042 L 182.359375 226.864583 L 185.4375 227.15625 L 188.520833 227.072917 L 191.604167 227.140625 L 194.682292 227.171875 L 197.765625 227.088542 L 200.848958 227.161458 L 203.927083 227.161458 L 207.010417 227.166667 L 210.09375 227.166667 L 213.171875 227.161458 L 216.255208 227.166667 L 228.583333 227.166667 L 231.666667 227.171875 L 234.744792 227.166667 L 240.911458 227.166667 " transform="matrix(0.75,0,0,0.75,0,0)"/>
<path style="fill:none;stroke-width:1.5;stroke-linecap:butt;stroke-linejoin:miter;stroke:rgb(100%,100%,100%);stroke-opacity:1;stroke-miterlimit:2;" d="M 59.088542 207.260417 L 62.171875 222.0625 L 65.255208 220.505208 L 68.333333 222.380208 L 71.416667 222.489583 L 74.5 222.375 L 77.583333 222.59375 L 80.661458 222.026042 L 83.744792 222.239583 L 86.828125 222.541667 L 89.90625 222.572917 L 92.989583 222.557292 L 96.072917 222.348958 L 99.151042 222.557292 L 102.234375 222.494792 L 105.317708 222.322917 L 108.395833 222.536458 L 111.479167 222.536458 L 114.5625 222.463542 L 117.640625 221.229167 L 120.723958 219.9375 L 123.807292 222.317708 L 126.885417 221.755208 L 129.96875 219.598958 L 133.052083 203.96875 L 136.130208 222.255208 L 139.213542 218.223958 L 142.296875 221.802083 L 145.375 222.052083 L 148.458333 221.744792 L 151.541667 222.5625 L 154.625 221.5 L 157.703125 221.723958 L 160.786458 221.46875 L 163.869792 222.338542 L 166.947917 222.552083 L 170.03125 219.130208 L 173.114583 221.848958 L 176.192708 222.286458 L 179.276042 222.53125 L 182.359375 222.359375 L 185.4375 222.276042 L 188.520833 222.526042 L 191.604167 222.53125 L 194.682292 222.552083 L 197.765625 222.541667 L 200.848958 222.583333 L 203.927083 222.583333 L 207.010417 222.588542 L 210.09375 222.588542 L 213.171875 222.583333 L 216.255208 222.588542 L 234.744792 222.588542 L 237.828125 222.59375 L 240.911458 222.588542 " transform="matrix(0.75,0,0,0.75,0,0)"/>
<path style="fill:none;stroke-width:1.5;stroke-linecap:butt;stroke-linejoin:miter;stroke:rgb(100%,100%,100%);stroke-opacity:1;stroke-miterlimit:2;" d="M 59.088542 216.796875 L 62.171875 217.791667 L 65.255208 217.927083 L 68.333333 216.947917 L 71.416667 217.510417 L 74.5 217.96875 L 77.583333 217.994792 L 80.661458 218.015625 L 83.744792 218.010417 L 86.828125 217.979167 L 89.90625 218.005208 L 92.989583 217.989583 L 96.072917 217.979167 L 99.151042 217.994792 L 102.234375 218.015625 L 105.317708 218.005208 L 108.395833 217.713542 L 111.479167 217.90625 L 114.5625 217.869792 L 117.640625 218.010417 L 120.723958 215.979167 L 123.807292 217.276042 L 126.885417 217.34375 L 129.96875 215.911458 L 133.052083 211.317708 L 136.130208 210.338542 L 139.213542 216.104167 L 142.296875 217.276042 L 145.375 216.432292 L 148.458333 217.6875 L 151.541667 216.255208 L 154.625 217.817708 L 157.703125 217.213542 L 160.786458 217.161458 L 163.869792 216.848958 L 166.947917 217.697917 L 170.03125 215.9375 L 173.114583 217.838542 L 176.192708 217.651042 L 179.276042 217.604167 L 182.359375 217.984375 L 185.4375 217.989583 L 188.520833 217.984375 L 191.604167 218.005208 L 194.682292 218 L 200.848958 218.010417 L 216.255208 218.010417 L 219.338542 218.015625 L 222.416667 218.010417 L 240.911458 218.010417 " transform="matrix(0.75,0,0,0.75,0,0)"/>
<path style="fill:none;stroke-width:1.5;stroke-linecap:butt;stroke-linejoin:miter;stroke:rgb(100%,100%,100%);stroke-opacity:1;stroke-miterlimit:2;" d="M 59.088542 213.432292 L 62.171875 212.817708 L 65.255208 211.5625 L 68.333333 213.395833 L 71.416667 213.208333 L 74.5 213.416667 L 77.583333 213.427083 L 80.661458 213.333333 L 83.744792 213.40625 L 86.828125 213.385417 L 89.90625 213.40625 L 92.989583 213.34375 L 96.072917 213.416667 L 99.151042 213.375 L 102.234375 213.421875 L 105.317708 213.401042 L 108.395833 213.322917 L 111.479167 213.302083 L 114.5625 213.354167 L 117.640625 213.427083 L 120.723958 213.270833 L 123.807292 213.390625 L 126.885417 210.25 L 129.96875 210.364583 L 133.052083 213.182292 L 136.130208 203.171875 L 139.213542 212.234375 L 142.296875 212.661458 L 145.375 212.958333 L 148.458333 213.09375 L 151.541667 213.083333 L 154.625 209.041667 L 157.703125 210.015625 L 160.786458 212.994792 L 163.869792 213.28125 L 166.947917 213.354167 L 170.03125 211.916667 L 173.114583 213.317708 L 176.192708 213.427083 L 179.276042 213.401042 L 182.359375 213.348958 L 185.4375 213.432292 L 188.520833 213.354167 L 191.604167 213.427083 L 194.682292 213.421875 L 197.765625 213.432292 L 240.911458 213.432292 " transform="matrix(0.75,0,0,0.75,0,0)"/>
<path style="fill:none;stroke-width:1.5;stroke-linecap:butt;stroke-linejoin:miter;stroke:rgb(100%,100%,100%);stroke-opacity:1;stroke-miterlimit:2;" d="M 59.088542 207.088542 L 62.171875 208.588542 L 65.255208 206.510417 L 68.333333 208.671875 L 71.416667 208.8125 L 74.5 208.760417 L 77.583333 208.822917 L 80.661458 208.838542 L 83.744792 208.822917 L 86.828125 208.630208 L 89.90625 208.786458 L 92.989583 208.723958 L 96.072917 208.817708 L 99.151042 208.848958 L 102.234375 208.760417 L 105.317708 208.807292 L 108.395833 208.802083 L 111.479167 208.651042 L 114.5625 208.8125 L 117.640625 208.552083 L 120.723958 208.796875 L 123.807292 208.651042 L 126.885417 206.359375 L 129.96875 179.708333 L 133.052083 198.166667 L 136.130208 197.401042 L 139.213542 208.104167 L 142.296875 208.6875 L 145.375 208.380208 L 148.458333 208.75 L 151.541667 208.421875 L 154.625 208.625 L 157.703125 207.677083 L 160.786458 207.739583 L 163.869792 208.145833 L 166.947917 206.677083 L 170.03125 208.130208 L 173.114583 208.776042 L 176.192708 208.854167 L 182.359375 208.854167 L 185.4375 208.791667 L 188.520833 208.84375 L 191.604167 208.84375 L 194.682292 208.838542 L 197.765625 208.848958 L 200.848958 208.848958 L 203.927083 208.854167 L 216.255208 208.854167 L 219.338542 208.848958 L 222.416667 208.854167 L 240.911458 208.854167 " transform="matrix(0.75,0,0,0.75,0,0)"/>
<path style="fill:none;stroke-width:1.5;stroke-linecap:butt;stroke-linejoin:miter;stroke:rgb(100%,100%,100%);stroke-opacity:1;stroke-miterlimit:2;" d="M 59.088542 203.859375 L 62.171875 204.203125 L 65.255208 201.697917 L 68.333333 202.9375 L 71.416667 204.265625 L 74.5 204.125 L 77.583333 204.109375 L 80.661458 204.052083 L 83.744792 204.203125 L 86.828125 204.270833 L 89.90625 204.119792 L 92.989583 204.21875 L 96.072917 204.166667 L 99.151042 204.171875 L 102.234375 204.1875 L 105.317708 204.166667 L 108.395833 204.15625 L 111.479167 204.223958 L 114.5625 204.041667 L 117.640625 203.989583 L 120.723958 204.135417 L 123.807292 204.260417 L 126.885417 200.208333 L 129.96875 201.390625 L 133.052083 202.385417 L 136.130208 204.260417 L 139.213542 192.994792 L 142.296875 199.020833 L 145.375 202.78125 L 148.458333 202.010417 L 151.541667 203.828125 L 154.625 199.8125 L 157.703125 202.755208 L 160.786458 204.223958 L 163.869792 202.932292 L 166.947917 203.572917 L 170.03125 204.026042 L 173.114583 203.90625 L 176.192708 204.203125 L 179.276042 204.197917 L 182.359375 204.223958 L 185.4375 204.255208 L 188.520833 204.255208 L 191.604167 204.25 L 194.682292 204.270833 L 197.765625 204.229167 L 200.848958 204.265625 L 207.010417 204.265625 L 210.09375 204.270833 L 213.171875 204.270833 L 216.255208 204.265625 L 219.338542 204.270833 L 231.666667 204.270833 L 234.744792 204.276042 L 237.828125 204.270833 L 240.911458 204.270833 " transform="matrix(0.75,0,0,0.75,0,0)"/>
<path style="fill:none;stroke-width:1.5;stroke-linecap:butt;stroke-linejoin:miter;stroke:rgb(100%,100%,100%);stroke-opacity:1;stroke-miterlimit:2;" d="M 59.088542 198.098958 L 62.171875 199.59375 L 65.255208 198.427083 L 68.333333 199.203125 L 71.416667 199.604167 L 74.5 199.182292 L 77.583333 199.546875 L 80.661458 199.651042 L 83.744792 199.604167 L 86.828125 199.692708 L 89.90625 199.677083 L 92.989583 199.65625 L 96.072917 199.682292 L 99.151042 199.609375 L 102.234375 199.6875 L 105.317708 199.588542 L 108.395833 199.385417 L 111.479167 199.536458 L 114.5625 199.572917 L 117.640625 199.588542 L 120.723958 198.838542 L 123.807292 199.104167 L 126.885417 198.130208 L 129.96875 198.989583 L 133.052083 193.229167 L 136.130208 192.520833 L 139.213542 182.854167 L 142.296875 196.083333 L 145.375 199.15625 L 148.458333 199.328125 L 151.541667 199.40625 L 154.625 199.619792 L 157.703125 199.6875 L 160.786458 196.875 L 163.869792 199.578125 L 166.947917 199.302083 L 170.03125 197.942708 L 173.114583 194.609375 L 176.192708 199.59375 L 179.276042 199.671875 L 182.359375 199.682292 L 185.4375 199.677083 L 188.520833 199.697917 L 191.604167 199.697917 L 194.682292 199.677083 L 197.765625 199.682292 L 200.848958 199.697917 L 240.911458 199.697917 " transform="matrix(0.75,0,0,0.75,0,0)"/>
<path style="fill:none;stroke-width:1.5;stroke-linecap:butt;stroke-linejoin:miter;stroke:rgb(100%,100%,100%);stroke-opacity:1;stroke-miterlimit:2;" d="M 59.088542 194.989583 L 62.171875 194.984375 L 65.255208 194.963542 L 68.333333 194.505208 L 71.416667 195.09375 L 74.5 194.932292 L 77.583333 194.880208 L 80.661458 195.104167 L 83.744792 195.010417 L 86.828125 195.088542 L 89.90625 195.0625 L 92.989583 195.114583 L 96.072917 194.989583 L 99.151042 195.104167 L 102.234375 195.078125 L 105.317708 195.104167 L 108.395833 194.927083 L 111.479167 195.104167 L 114.5625 194.859375 L 117.640625 194.859375 L 120.723958 194.791667 L 123.807292 194.822917 L 126.885417 194.546875 L 129.96875 193.541667 L 133.052083 194.411458 L 136.130208 191.145833 L 139.213542 172.229167 L 142.296875 190.520833 L 145.375 194.067708 L 148.458333 194.755208 L 151.541667 193.947917 L 154.625 194.979167 L 157.703125 193.822917 L 160.786458 194.078125 L 163.869792 193.802083 L 166.947917 194.53125 L 170.03125 190.947917 L 173.114583 192.973958 L 176.192708 194.682292 L 179.276042 195.072917 L 182.359375 195.098958 L 185.4375 195.098958 L 188.520833 195.114583 L 191.604167 195.109375 L 194.682292 195.109375 L 197.765625 195.057292 L 200.848958 195.104167 L 203.927083 195.109375 L 207.010417 195.109375 L 210.09375 195.114583 L 213.171875 195.109375 L 216.255208 195.114583 L 240.911458 195.114583 " transform="matrix(0.75,0,0,0.75,0,0)"/>
<path style="fill:none;stroke-width:1.5;stroke-linecap:butt;stroke-linejoin:miter;stroke:rgb(100%,100%,100%);stroke-opacity:1;stroke-miterlimit:2;" d="M 59.088542 190.536458 L 62.171875 190.510417 L 65.255208 187.359375 L 68.333333 190.520833 L 71.416667 190.03125 L 74.5 190.510417 L 77.583333 190.494792 L 80.661458 190.4375 L 83.744792 190.484375 L 86.828125 190.536458 L 89.90625 190.526042 L 92.989583 190.515625 L 96.072917 190.354167 L 99.151042 190.5 L 102.234375 190.494792 L 105.317708 190.53125 L 108.395833 190.4375 L 111.479167 190.255208 L 114.5625 190.333333 L 117.640625 189.979167 L 120.723958 187.90625 L 123.807292 189.776042 L 126.885417 190.234375 L 129.96875 186.411458 L 133.052083 188.666667 L 136.130208 180.546875 L 139.213542 153.901042 L 142.296875 188.744792 L 145.375 189.427083 L 148.458333 190.447917 L 151.541667 190.171875 L 154.625 190.208333 L 157.703125 189.880208 L 160.786458 189.723958 L 163.869792 187.640625 L 166.947917 190.369792 L 170.03125 188.979167 L 173.114583 190.270833 L 176.192708 190.484375 L 179.276042 190.4375 L 182.359375 190.515625 L 185.4375 190.5 L 188.520833 190.390625 L 191.604167 190.526042 L 194.682292 190.515625 L 197.765625 190.53125 L 200.848958 190.526042 L 203.927083 190.53125 L 207.010417 190.526042 L 210.09375 190.526042 L 213.171875 190.53125 L 216.255208 190.526042 L 219.338542 190.53125 L 240.911458 190.53125 " transform="matrix(0.75,0,0,0.75,0,0)"/>
<path style="fill:none;stroke-width:1.5;stroke-linecap:butt;stroke-linejoin:miter;stroke:rgb(100%,100%,100%);stroke-opacity:1;stroke-miterlimit:2;" d="M 59.088542 185.796875 L 62.171875 185.953125 L 65.255208 185.020833 L 68.333333 185.598958 L 71.416667 185.723958 L 74.5 185.640625 L 77.583333 185.713542 L 80.661458 185.942708 L 86.828125 185.932292 L 89.90625 185.942708 L 92.989583 185.859375 L 96.072917 185.932292 L 99.151042 185.953125 L 102.234375 185.729167 L 105.317708 185.901042 L 108.395833 185.911458 L 111.479167 185.869792 L 114.5625 185.911458 L 117.640625 185.927083 L 120.723958 184.875 L 123.807292 185.171875 L 126.885417 185.041667 L 129.96875 180.729167 L 133.052083 185.770833 L 136.130208 175.005208 L 139.213542 182.6875 L 142.296875 179.640625 L 145.375 183.96875 L 148.458333 185.375 L 151.541667 185.796875 L 154.625 184.895833 L 157.703125 185.885417 L 160.786458 179.958333 L 163.869792 185.885417 L 166.947917 185.947917 L 170.03125 185.802083 L 173.114583 185.432292 L 176.192708 185.671875 L 179.276042 185.744792 L 182.359375 185.869792 L 185.4375 185.9375 L 188.520833 185.932292 L 191.604167 185.9375 L 194.682292 185.932292 L 197.765625 185.869792 L 200.848958 185.921875 L 203.927083 185.927083 L 207.010417 185.927083 L 210.09375 185.932292 L 213.171875 185.932292 L 216.255208 185.9375 L 225.5 185.9375 L 228.583333 185.942708 L 237.828125 185.942708 L 240.911458 185.947917 " transform="matrix(0.75,0,0,0.75,0,0)"/>
<path style="fill:none;stroke-width:1.5;stroke-linecap:butt;stroke-linejoin:miter;stroke:rgb(100%,100%,100%);stroke-opacity:1;stroke-miterlimit:2;" d="M 59.088542 181.375 L 62.171875 181.083333 L 65.255208 181.333333 L 68.333333 179.453125 L 71.416667 181.380208 L 74.5 181.182292 L 77.583333 180.973958 L 80.661458 181.192708 L 83.744792 181.276042 L 86.828125 181.380208 L 89.90625 181.239583 L 92.989583 181.338542 L 96.072917 181.328125 L 99.151042 181.348958 L 102.234375 181.369792 L 105.317708 181.213542 L 108.395833 181.296875 L 111.479167 181.359375 L 114.5625 181.333333 L 117.640625 181.3125 L 120.723958 180.609375 L 123.807292 180.645833 L 126.885417 181.119792 L 129.96875 177.703125 L 133.052083 177.71875 L 136.130208 178.46875 L 139.213542 176.713542 L 142.296875 181.375 L 145.375 180.328125 L 148.458333 181.265625 L 151.541667 181.302083 L 154.625 180.34375 L 157.703125 181.234375 L 160.786458 180.885417 L 163.869792 181.322917 L 166.947917 180.958333 L 170.03125 181.197917 L 173.114583 180.765625 L 176.192708 181.192708 L 179.276042 181.307292 L 182.359375 181.34375 L 185.4375 181.338542 L 188.520833 181.328125 L 191.604167 181.380208 L 194.682292 181.354167 L 197.765625 181.380208 L 200.848958 181.375 L 203.927083 181.380208 L 207.010417 181.375 L 219.338542 181.375 L 222.416667 181.380208 L 225.5 181.375 L 228.583333 181.380208 L 240.911458 181.380208 " transform="matrix(0.75,0,0,0.75,0,0)"/>
<path style="fill:none;stroke-width:1.5;stroke-linecap:butt;stroke-linejoin:miter;stroke:rgb(100%,100%,100%);stroke-opacity:1;stroke-miterlimit:2;" d="M 59.088542 176.796875 L 62.171875 176.729167 L 65.255208 175.932292 L 68.333333 176.796875 L 71.416667 176.786458 L 74.5 176.760417 L 77.583333 176.645833 L 80.661458 176.729167 L 83.744792 176.760417 L 86.828125 176.786458 L 89.90625 176.760417 L 92.989583 176.78125 L 96.072917 176.78125 L 99.151042 176.776042 L 102.234375 176.791667 L 105.317708 176.78125 L 108.395833 176.791667 L 111.479167 176.78125 L 114.5625 176.640625 L 117.640625 176.729167 L 120.723958 175.916667 L 123.807292 176.666667 L 126.885417 176.734375 L 129.96875 176.072917 L 133.052083 176.666667 L 136.130208 175.244792 L 139.213542 174.296875 L 142.296875 176.447917 L 145.375 176.317708 L 148.458333 176.479167 L 151.541667 176.536458 L 154.625 171.09375 L 157.703125 175.338542 L 160.786458 176.328125 L 163.869792 176.109375 L 166.947917 176 L 170.03125 175.994792 L 173.114583 175.375 L 176.192708 176.760417 L 179.276042 176.625 L 182.359375 176.723958 L 185.4375 176.765625 L 188.520833 176.796875 L 191.604167 176.770833 L 194.682292 176.78125 L 197.765625 176.796875 L 207.010417 176.796875 L 210.09375 176.791667 L 213.171875 176.796875 L 240.911458 176.796875 " transform="matrix(0.75,0,0,0.75,0,0)"/>
<path style="fill:none;stroke-width:1.5;stroke-linecap:butt;stroke-linejoin:miter;stroke:rgb(100%,100%,100%);stroke-opacity:1;stroke-miterlimit:2;" d="M 59.088542 172.098958 L 62.171875 172.213542 L 65.255208 171.682292 L 68.333333 171.609375 L 71.416667 172.0625 L 74.5 172.104167 L 77.583333 172.130208 L 80.661458 172.020833 L 83.744792 172.182292 L 86.828125 172.197917 L 89.90625 172.1875 L 92.989583 172.197917 L 96.072917 172.15625 L 99.151042 172.213542 L 102.234375 172.21875 L 105.317708 172.197917 L 111.479167 172.197917 L 114.5625 172.161458 L 117.640625 172.1875 L 120.723958 171.5 L 123.807292 172.057292 L 126.885417 171.885417 L 129.96875 169.572917 L 133.052083 169.265625 L 136.130208 169.161458 L 139.213542 171.1875 L 142.296875 171.880208 L 145.375 172.125 L 148.458333 172.15625 L 151.541667 171.8125 L 154.625 168.661458 L 157.703125 169.671875 L 160.786458 170.072917 L 163.869792 171.953125 L 166.947917 171.4375 L 170.03125 170.088542 L 173.114583 171.536458 L 176.192708 172.21875 L 179.276042 172.057292 L 182.359375 172.036458 L 185.4375 172.161458 L 188.520833 172.182292 L 191.604167 172.161458 L 194.682292 172.203125 L 197.765625 172.1875 L 200.848958 172.1875 L 203.927083 172.203125 L 207.010417 172.203125 L 210.09375 172.208333 L 216.255208 172.208333 L 219.338542 172.213542 L 222.416667 172.208333 L 225.5 172.208333 L 228.583333 172.213542 L 240.911458 172.213542 " transform="matrix(0.75,0,0,0.75,0,0)"/>
<path style="fill:none;stroke-width:1.5;stroke-linecap:butt;stroke-linejoin:miter;stroke:rgb(100%,100%,100%);stroke-opacity:1;stroke-miterlimit:2;" d="M 59.088542 167.473958 L 62.171875 167.442708 L 65.255208 166.041667 L 68.333333 167.447917 L 71.416667 167.489583 L 74.5 167.505208 L 77.583333 167.088542 L 80.661458 167.588542 L 83.744792 167.505208 L 86.828125 167.619792 L 89.90625 167.541667 L 92.989583 167.572917 L 96.072917 167.625 L 99.151042 167.625 L 102.234375 167.609375 L 105.317708 167.505208 L 108.395833 167.489583 L 111.479167 167.635417 L 114.5625 167.640625 L 117.640625 167.442708 L 120.723958 167.21875 L 123.807292 167.395833 L 126.885417 167.213542 L 129.96875 160.270833 L 133.052083 166.666667 L 136.130208 162.6875 L 139.213542 159.572917 L 142.296875 167.239583 L 145.375 167.609375 L 148.458333 167.364583 L 151.541667 167.3125 L 154.625 166.494792 L 157.703125 166.3125 L 160.786458 165.645833 L 163.869792 167.578125 L 166.947917 167.46875 L 170.03125 165.244792 L 173.114583 167.0625 L 176.192708 167.489583 L 179.276042 167.338542 L 182.359375 167.5 L 185.4375 167.572917 L 188.520833 167.619792 L 191.604167 167.567708 L 194.682292 167.59375 L 200.848958 167.625 L 203.927083 167.619792 L 207.010417 167.619792 L 210.09375 167.625 L 216.255208 167.625 L 219.338542 167.630208 L 237.828125 167.630208 L 240.911458 167.635417 " transform="matrix(0.75,0,0,0.75,0,0)"/>
<path style="fill:none;stroke-width:1.5;stroke-linecap:butt;stroke-linejoin:miter;stroke:rgb(100%,100%,100%);stroke-opacity:1;stroke-miterlimit:2;" d="M 59.088542 162.880208 L 62.171875 162.9375 L 65.255208 162.802083 L 68.333333 162.505208 L 71.416667 163.036458 L 74.5 162.755208 L 77.583333 162.984375 L 80.661458 162.614583 L 83.744792 163.0625 L 86.828125 163.03125 L 89.90625 163.052083 L 92.989583 162.947917 L 96.072917 163.041667 L 99.151042 163.036458 L 102.234375 162.947917 L 105.317708 163.010417 L 108.395833 163.03125 L 111.479167 162.932292 L 114.5625 163.046875 L 117.640625 162.953125 L 120.723958 160.0625 L 123.807292 162.979167 L 126.885417 163.026042 L 129.96875 162.651042 L 133.052083 162.994792 L 136.130208 161.901042 L 139.213542 162.760417 L 142.296875 162.739583 L 145.375 162.578125 L 148.458333 162.890625 L 151.541667 162.59375 L 154.625 163.046875 L 157.703125 161.489583 L 160.786458 161.645833 L 163.869792 162.947917 L 166.947917 162.880208 L 170.03125 162.609375 L 173.114583 162.458333 L 176.192708 162.567708 L 179.276042 162.979167 L 182.359375 163.020833 L 185.4375 163.052083 L 188.520833 163.041667 L 194.682292 163.041667 L 197.765625 163.057292 L 200.848958 163.057292 L 203.927083 163.0625 L 207.010417 163.057292 L 210.09375 163.057292 L 213.171875 163.0625 L 240.911458 163.0625 " transform="matrix(0.75,0,0,0.75,0,0)"/>
<path style="fill:none;stroke-width:1.5;stroke-linecap:butt;stroke-linejoin:miter;stroke:rgb(100%,100%,100%);stroke-opacity:1;stroke-miterlimit:2;" d="M 59.088542 158.223958 L 62.171875 157.864583 L 65.255208 156.765625 L 68.333333 157.958333 L 71.416667 158.442708 L 74.5 158.463542 L 77.583333 158.421875 L 80.661458 158.171875 L 83.744792 158.473958 L 86.828125 158.432292 L 89.90625 158.458333 L 92.989583 158.458333 L 96.072917 158.479167 L 99.151042 158.473958 L 102.234375 158.463542 L 105.317708 158.375 L 108.395833 158.354167 L 111.479167 158.479167 L 114.5625 158.473958 L 117.640625 158.291667 L 120.723958 157.619792 L 123.807292 158.130208 L 126.885417 158.208333 L 129.96875 156.854167 L 133.052083 158.104167 L 136.130208 158.453125 L 139.213542 158.177083 L 142.296875 158.447917 L 145.375 158.041667 L 148.458333 158.109375 L 151.541667 157.828125 L 154.625 158.359375 L 157.703125 157.848958 L 160.786458 157.588542 L 163.869792 158.177083 L 166.947917 158.473958 L 170.03125 158.078125 L 173.114583 158.328125 L 176.192708 158.317708 L 179.276042 158.432292 L 182.359375 158.479167 L 185.4375 158.463542 L 188.520833 158.473958 L 191.604167 158.479167 L 194.682292 158.473958 L 197.765625 158.479167 L 240.911458 158.479167 " transform="matrix(0.75,0,0,0.75,0,0)"/>
<path style="fill:none;stroke-width:1.5;stroke-linecap:butt;stroke-linejoin:miter;stroke:rgb(100%,100%,100%);stroke-opacity:1;stroke-miterlimit:2;" d="M 59.088542 153.291667 L 62.171875 153.5625 L 65.255208 153.869792 L 68.333333 153.09375 L 71.416667 153.53125 L 74.5 153.833333 L 77.583333 153.848958 L 80.661458 153.869792 L 83.744792 153.864583 L 86.828125 153.744792 L 89.90625 153.854167 L 92.989583 153.822917 L 96.072917 153.869792 L 99.151042 153.885417 L 102.234375 153.901042 L 105.317708 153.807292 L 108.395833 153.760417 L 111.479167 153.890625 L 114.5625 153.901042 L 117.640625 153.807292 L 120.723958 153.572917 L 123.807292 153.880208 L 126.885417 153.807292 L 129.96875 153.53125 L 133.052083 153.828125 L 136.130208 153.578125 L 139.213542 153.098958 L 142.296875 153.3125 L 145.375 153.380208 L 148.458333 153.869792 L 151.541667 153.598958 L 154.625 153.744792 L 157.703125 153.625 L 160.786458 153.052083 L 163.869792 153.84375 L 166.947917 153.875 L 170.03125 153.848958 L 173.114583 153.723958 L 176.192708 153.859375 L 179.276042 153.880208 L 182.359375 153.885417 L 185.4375 153.895833 L 188.520833 153.895833 L 191.604167 153.890625 L 194.682292 153.895833 L 197.765625 153.901042 L 240.911458 153.901042 " transform="matrix(0.75,0,0,0.75,0,0)"/>
<path style="fill:none;stroke-width:1.5;stroke-linecap:butt;stroke-linejoin:miter;stroke:rgb(100%,100%,100%);stroke-opacity:1;stroke-miterlimit:2;" d="M 59.088542 149.223958 L 62.171875 149.109375 L 65.255208 148.916667 L 68.333333 148.947917 L 71.416667 149.041667 L 74.5 149.114583 L 77.583333 149.307292 L 80.661458 149.166667 L 83.744792 149.260417 L 86.828125 149.296875 L 89.90625 149.244792 L 92.989583 149.302083 L 96.072917 149.286458 L 99.151042 149.286458 L 102.234375 149.3125 L 105.317708 149.291667 L 108.395833 149.239583 L 111.479167 149.270833 L 114.5625 149.291667 L 117.640625 148.979167 L 120.723958 148.833333 L 123.807292 149.052083 L 126.885417 149.15625 L 129.96875 148.166667 L 133.052083 147.5 L 136.130208 149.28125 L 139.213542 148.348958 L 142.296875 149.208333 L 145.375 148.447917 L 148.458333 147.104167 L 151.541667 147.994792 L 154.625 149.239583 L 157.703125 149.171875 L 160.786458 148.989583 L 163.869792 148.5 L 166.947917 148.963542 L 170.03125 149.026042 L 173.114583 149.296875 L 176.192708 149.296875 L 179.276042 149.307292 L 182.359375 149.270833 L 185.4375 149.302083 L 188.520833 149.322917 L 191.604167 149.322917 L 194.682292 149.317708 L 197.765625 149.317708 L 200.848958 149.322917 L 240.911458 149.322917 " transform="matrix(0.75,0,0,0.75,0,0)"/>
<path style="fill:none;stroke-width:1.5;stroke-linecap:butt;stroke-linejoin:miter;stroke:rgb(100%,100%,100%);stroke-opacity:1;stroke-miterlimit:2;" d="M 59.088542 144.744792 L 62.171875 144.666667 L 65.255208 143.994792 L 68.333333 142.041667 L 71.416667 144.416667 L 74.5 144.677083 L 77.583333 144.572917 L 80.661458 144.713542 L 83.744792 144.744792 L 86.828125 144.697917 L 89.90625 144.661458 L 92.989583 144.703125 L 96.072917 144.729167 L 99.151042 144.697917 L 102.234375 144.734375 L 105.317708 144.682292 L 108.395833 144.645833 L 111.479167 144.739583 L 114.5625 144.739583 L 117.640625 144.609375 L 120.723958 144.619792 L 123.807292 144.239583 L 126.885417 144.010417 L 129.96875 138.083333 L 133.052083 142.546875 L 136.130208 144.015625 L 139.213542 144.21875 L 142.296875 144.572917 L 145.375 144.71875 L 148.458333 144.567708 L 151.541667 144.6875 L 154.625 144.734375 L 157.703125 142.921875 L 160.786458 143.1875 L 163.869792 144.661458 L 166.947917 144.661458 L 170.03125 144.65625 L 173.114583 144.708333 L 176.192708 144.744792 L 179.276042 144.729167 L 182.359375 144.734375 L 185.4375 144.729167 L 188.520833 144.739583 L 191.604167 144.744792 L 194.682292 144.744792 L 197.765625 144.739583 L 200.848958 144.744792 L 240.911458 144.744792 " transform="matrix(0.75,0,0,0.75,0,0)"/>
<path style="fill:none;stroke-width:1.5;stroke-linecap:butt;stroke-linejoin:miter;stroke:rgb(100%,100%,100%);stroke-opacity:1;stroke-miterlimit:2;" d="M 59.088542 140.104167 L 62.171875 140.03125 L 65.255208 139.505208 L 68.333333 139.291667 L 71.416667 139.828125 L 74.5 139.625 L 77.583333 140.104167 L 80.661458 140.114583 L 83.744792 140.098958 L 86.828125 140.161458 L 92.989583 140.161458 L 96.072917 140.09375 L 99.151042 140.135417 L 102.234375 140.145833 L 105.317708 140.098958 L 108.395833 140.145833 L 111.479167 140.161458 L 114.5625 140.020833 L 117.640625 140.130208 L 120.723958 139.671875 L 123.807292 139.520833 L 126.885417 139.192708 L 129.96875 134.979167 L 133.052083 128.046875 L 136.130208 139.078125 L 139.213542 139.348958 L 142.296875 140 L 145.375 138.692708 L 148.458333 137.885417 L 151.541667 140.067708 L 154.625 139.604167 L 157.703125 140.072917 L 160.786458 138.067708 L 163.869792 139.916667 L 166.947917 139.989583 L 173.114583 140.15625 L 176.192708 140.067708 L 179.276042 140.15625 L 182.359375 140.15625 L 185.4375 140.161458 L 188.520833 140.15625 L 191.604167 140.161458 L 194.682292 140.161458 L 197.765625 140.166667 L 200.848958 140.15625 L 203.927083 140.161458 L 240.911458 140.161458 " transform="matrix(0.75,0,0,0.75,0,0)"/>
<path style="fill:none;stroke-width:1.5;stroke-linecap:butt;stroke-linejoin:miter;stroke:rgb(100%,100%,100%);stroke-opacity:1;stroke-miterlimit:2;" d="M 59.088542 134.682292 L 62.171875 135.479167 L 65.255208 134.994792 L 68.333333 135.463542 L 71.416667 135.505208 L 74.5 135.109375 L 77.583333 135.526042 L 80.661458 135.557292 L 83.744792 135.447917 L 86.828125 135.526042 L 89.90625 135.557292 L 92.989583 135.557292 L 96.072917 135.515625 L 99.151042 135.572917 L 102.234375 135.567708 L 105.317708 135.53125 L 108.395833 135.572917 L 111.479167 135.494792 L 114.5625 135.505208 L 117.640625 135.401042 L 120.723958 134.322917 L 123.807292 133.494792 L 126.885417 133.520833 L 129.96875 129.895833 L 133.052083 104.536458 L 136.130208 134.15625 L 139.213542 135.489583 L 142.296875 135.494792 L 145.375 135.078125 L 148.458333 133.328125 L 151.541667 134.619792 L 154.625 135.09375 L 157.703125 135.348958 L 160.786458 134.302083 L 163.869792 135.453125 L 166.947917 135.5625 L 170.03125 135.526042 L 173.114583 135.34375 L 176.192708 135.572917 L 179.276042 135.567708 L 182.359375 135.578125 L 185.4375 135.557292 L 188.520833 135.546875 L 191.604167 135.557292 L 194.682292 135.567708 L 197.765625 135.567708 L 200.848958 135.578125 L 203.927083 135.572917 L 207.010417 135.572917 L 210.09375 135.578125 L 231.666667 135.578125 L 234.744792 135.583333 L 237.828125 135.578125 L 240.911458 135.583333 " transform="matrix(0.75,0,0,0.75,0,0)"/>
<path style="fill:none;stroke-width:1.5;stroke-linecap:butt;stroke-linejoin:miter;stroke:rgb(100%,100%,100%);stroke-opacity:1;stroke-miterlimit:2;" d="M 59.088542 129.833333 L 62.171875 130.755208 L 65.255208 130.739583 L 68.333333 129.53125 L 71.416667 130.526042 L 74.5 130.526042 L 77.583333 130.921875 L 80.661458 131 L 83.744792 130.973958 L 86.828125 130.96875 L 89.90625 130.932292 L 92.989583 130.989583 L 96.072917 130.859375 L 99.151042 130.9375 L 102.234375 130.84375 L 105.317708 130.854167 L 108.395833 130.9375 L 111.479167 130.791667 L 114.5625 130.807292 L 117.640625 130.645833 L 120.723958 129.71875 L 123.807292 130.84375 L 126.885417 129.53125 L 129.96875 125.677083 L 133.052083 104.854167 L 136.130208 128.895833 L 139.213542 130.296875 L 142.296875 130.625 L 145.375 130.8125 L 148.458333 130.880208 L 151.541667 130.807292 L 154.625 130.197917 L 157.703125 130.036458 L 160.786458 129.854167 L 163.869792 130.760417 L 166.947917 130.932292 L 170.03125 130.984375 L 173.114583 130.932292 L 176.192708 130.963542 L 179.276042 130.989583 L 182.359375 130.994792 L 185.4375 130.890625 L 188.520833 131 L 210.09375 131 L 213.171875 131.005208 L 216.255208 131 L 219.338542 131 L 222.416667 131.005208 L 228.583333 131.005208 L 231.666667 131 L 234.744792 131.005208 L 237.828125 131 L 240.911458 131.005208 " transform="matrix(0.75,0,0,0.75,0,0)"/>
<path style="fill:none;stroke-width:1.5;stroke-linecap:butt;stroke-linejoin:miter;stroke:rgb(100%,100%,100%);stroke-opacity:1;stroke-miterlimit:2;" d="M 59.088542 124.234375 L 62.171875 126.34375 L 65.255208 124.973958 L 68.333333 124.682292 L 71.416667 125.973958 L 74.5 126.390625 L 77.583333 126.130208 L 80.661458 125.807292 L 83.744792 126.276042 L 86.828125 126.421875 L 89.90625 126.401042 L 92.989583 126.390625 L 96.072917 126.354167 L 99.151042 126.338542 L 102.234375 126.359375 L 105.317708 126.359375 L 108.395833 126.416667 L 111.479167 126.380208 L 114.5625 126.25 L 117.640625 126.265625 L 120.723958 126.244792 L 123.807292 126.416667 L 126.885417 126.171875 L 129.96875 120.536458 L 133.052083 119.213542 L 136.130208 124.953125 L 139.213542 126.328125 L 142.296875 126.411458 L 145.375 126.380208 L 148.458333 126.296875 L 151.541667 126.302083 L 154.625 125.958333 L 157.703125 125.296875 L 160.786458 126.322917 L 163.869792 126.369792 L 166.947917 126.354167 L 173.114583 126.40625 L 176.192708 126.395833 L 179.276042 126.395833 L 182.359375 126.40625 L 185.4375 126.369792 L 188.520833 126.427083 L 191.604167 126.416667 L 194.682292 126.416667 L 197.765625 126.421875 L 200.848958 126.416667 L 203.927083 126.421875 L 207.010417 126.421875 L 210.09375 126.416667 L 213.171875 126.421875 L 240.911458 126.421875 " transform="matrix(0.75,0,0,0.75,0,0)"/>
<path style="fill:none;stroke-width:1.5;stroke-linecap:butt;stroke-linejoin:miter;stroke:rgb(100%,100%,100%);stroke-opacity:1;stroke-miterlimit:2;" d="M 59.088542 114.515625 L 62.171875 121.817708 L 65.255208 121.510417 L 68.333333 120.807292 L 71.416667 121.625 L 74.5 121.828125 L 77.583333 121.494792 L 80.661458 121.760417 L 83.744792 121.828125 L 86.828125 121.78125 L 89.90625 121.734375 L 92.989583 121.739583 L 96.072917 121.838542 L 99.151042 121.588542 L 102.234375 121.817708 L 105.317708 121.807292 L 108.395833 121.84375 L 111.479167 121.822917 L 114.5625 121.776042 L 117.640625 121.760417 L 120.723958 121.171875 L 123.807292 121.578125 L 126.885417 121.697917 L 129.96875 119.197917 L 133.052083 121.708333 L 136.130208 121.421875 L 139.213542 121.15625 L 142.296875 121.770833 L 145.375 121.796875 L 148.458333 121.567708 L 151.541667 121.0625 L 154.625 121.755208 L 157.703125 121.770833 L 160.786458 119.963542 L 163.869792 120.375 L 166.947917 121.515625 L 170.03125 121.296875 L 173.114583 121.6875 L 176.192708 121.817708 L 179.276042 121.84375 L 182.359375 121.84375 L 185.4375 121.833333 L 188.520833 121.84375 L 191.604167 121.848958 L 194.682292 121.84375 L 197.765625 121.848958 L 200.848958 121.84375 L 203.927083 121.848958 L 207.010417 121.84375 L 210.09375 121.848958 L 213.171875 121.84375 L 219.338542 121.84375 L 222.416667 121.848958 L 231.666667 121.848958 L 234.744792 121.84375 L 237.828125 121.84375 L 240.911458 121.848958 " transform="matrix(0.75,0,0,0.75,0,0)"/>
<path style="fill:none;stroke-width:1.5;stroke-linecap:butt;stroke-linejoin:miter;stroke:rgb(100%,100%,100%);stroke-opacity:1;stroke-miterlimit:2;" d="M 59.088542 113.270833 L 62.171875 117.213542 L 65.255208 116.833333 L 68.333333 116.307292 L 71.416667 117.229167 L 74.5 117.229167 L 77.583333 117.104167 L 80.661458 117.140625 L 83.744792 117.098958 L 86.828125 117.244792 L 89.90625 117.15625 L 92.989583 117.255208 L 96.072917 117.223958 L 99.151042 117.25 L 102.234375 117.244792 L 105.317708 117.260417 L 108.395833 117.244792 L 111.479167 117.255208 L 114.5625 117.208333 L 117.640625 117.03125 L 120.723958 117.255208 L 123.807292 116.333333 L 126.885417 117.213542 L 129.96875 117.244792 L 133.052083 114.380208 L 136.130208 116.901042 L 139.213542 117.078125 L 142.296875 117 L 145.375 116.942708 L 148.458333 117.140625 L 151.541667 117.213542 L 154.625 116.791667 L 157.703125 116.869792 L 160.786458 116.9375 L 163.869792 116.963542 L 166.947917 117.125 L 170.03125 117.21875 L 173.114583 117.1875 L 176.192708 117.265625 L 179.276042 117.208333 L 182.359375 117.244792 L 185.4375 117.265625 L 240.911458 117.265625 " transform="matrix(0.75,0,0,0.75,0,0)"/>
<path style="fill:none;stroke-width:1.5;stroke-linecap:butt;stroke-linejoin:miter;stroke:rgb(100%,100%,100%);stroke-opacity:1;stroke-miterlimit:2;" d="M 59.088542 111.958333 L 62.171875 112.5625 L 65.255208 112.197917 L 68.333333 112.40625 L 74.5 112.5 L 77.583333 112.348958 L 80.661458 112.625 L 83.744792 112.645833 L 86.828125 112.682292 L 89.90625 112.661458 L 92.989583 112.666667 L 96.072917 112.572917 L 99.151042 112.604167 L 102.234375 112.651042 L 105.317708 112.6875 L 108.395833 112.671875 L 111.479167 112.666667 L 114.5625 112.65625 L 117.640625 112.588542 L 120.723958 112.348958 L 123.807292 112.520833 L 126.885417 112.286458 L 129.96875 112.4375 L 133.052083 110.953125 L 136.130208 112.098958 L 139.213542 112.630208 L 142.296875 112.182292 L 145.375 112.625 L 148.458333 112.28125 L 151.541667 112.6875 L 154.625 112.671875 L 157.703125 112.114583 L 160.786458 111.8125 L 163.869792 112.276042 L 166.947917 112.6875 L 170.03125 112.442708 L 173.114583 112.588542 L 176.192708 112.671875 L 179.276042 112.65625 L 182.359375 112.671875 L 185.4375 112.682292 L 188.520833 112.682292 L 191.604167 112.6875 L 240.911458 112.6875 " transform="matrix(0.75,0,0,0.75,0,0)"/>
<path style="fill:none;stroke-width:1.5;stroke-linecap:butt;stroke-linejoin:miter;stroke:rgb(100%,100%,100%);stroke-opacity:1;stroke-miterlimit:2;" d="M 59.088542 108.109375 L 62.171875 107.958333 L 65.255208 107.375 L 68.333333 107.739583 L 71.416667 107.609375 L 74.5 108.03125 L 77.583333 107.84375 L 80.661458 107.671875 L 83.744792 108.010417 L 86.828125 108.046875 L 89.90625 108.046875 L 92.989583 108 L 96.072917 108.078125 L 99.151042 108.109375 L 102.234375 108.078125 L 105.317708 108.104167 L 108.395833 108.0625 L 111.479167 108.046875 L 114.5625 108.067708 L 117.640625 108.098958 L 120.723958 107.84375 L 123.807292 107.901042 L 126.885417 107.46875 L 129.96875 98.713542 L 133.052083 105.375 L 136.130208 107.734375 L 139.213542 107.838542 L 142.296875 107.666667 L 145.375 107.75 L 148.458333 107.78125 L 151.541667 105.65625 L 154.625 105.958333 L 157.703125 107.125 L 160.786458 107.666667 L 163.869792 107.958333 L 166.947917 108.052083 L 170.03125 107.958333 L 173.114583 108.0625 L 176.192708 108.098958 L 179.276042 108.098958 L 182.359375 108.09375 L 188.520833 108.09375 L 191.604167 108.104167 L 234.744792 108.104167 L 237.828125 108.109375 L 240.911458 108.109375 " transform="matrix(0.75,0,0,0.75,0,0)"/>
<path style="fill:none;stroke-width:1.5;stroke-linecap:butt;stroke-linejoin:miter;stroke:rgb(100%,100%,100%);stroke-opacity:1;stroke-miterlimit:2;" d="M 59.088542 103.411458 L 62.171875 103.375 L 65.255208 100.96875 L 68.333333 100.270833 L 71.416667 103.489583 L 74.5 103.40625 L 77.583333 103.520833 L 80.661458 103.479167 L 83.744792 103.453125 L 86.828125 103.489583 L 89.90625 103.463542 L 92.989583 103.4375 L 96.072917 103.401042 L 99.151042 103.505208 L 102.234375 103.479167 L 105.317708 103.510417 L 108.395833 103.463542 L 111.479167 103.489583 L 114.5625 103.489583 L 117.640625 103.479167 L 120.723958 103.442708 L 123.807292 103.260417 L 126.885417 102.994792 L 129.96875 101.223958 L 133.052083 97.958333 L 136.130208 102.692708 L 139.213542 103.34375 L 142.296875 103.09375 L 145.375 93.994792 L 148.458333 97.786458 L 151.541667 101.630208 L 154.625 103.260417 L 157.703125 102.822917 L 160.786458 102.828125 L 163.869792 103.114583 L 166.947917 103.463542 L 170.03125 103.5 L 173.114583 103.489583 L 176.192708 103.510417 L 179.276042 103.526042 L 182.359375 103.520833 L 188.520833 103.520833 L 191.604167 103.526042 L 240.911458 103.526042 " transform="matrix(0.75,0,0,0.75,0,0)"/>
<path style="fill:none;stroke-width:1.5;stroke-linecap:butt;stroke-linejoin:miter;stroke:rgb(100%,100%,100%);stroke-opacity:1;stroke-miterlimit:2;" d="M 59.088542 98.932292 L 62.171875 98.635417 L 65.255208 98.28125 L 68.333333 97.463542 L 71.416667 98.901042 L 74.5 98.921875 L 77.583333 98.75 L 80.661458 98.84375 L 83.744792 98.864583 L 86.828125 98.942708 L 89.90625 98.828125 L 92.989583 98.947917 L 96.072917 98.869792 L 99.151042 98.947917 L 102.234375 98.9375 L 105.317708 98.911458 L 108.395833 98.932292 L 111.479167 98.885417 L 114.5625 98.84375 L 117.640625 98.885417 L 120.723958 97.796875 L 123.807292 98.177083 L 126.885417 98.6875 L 129.96875 86.953125 L 133.052083 92.864583 L 136.130208 98.322917 L 139.213542 93.75 L 142.296875 95.546875 L 145.375 98.578125 L 148.458333 98.442708 L 151.541667 98.796875 L 154.625 98.84375 L 157.703125 97.416667 L 160.786458 98.9375 L 163.869792 98.760417 L 166.947917 98.901042 L 170.03125 98.796875 L 173.114583 98.942708 L 176.192708 98.921875 L 179.276042 98.927083 L 182.359375 98.9375 L 185.4375 98.947917 L 188.520833 98.911458 L 191.604167 98.947917 L 240.911458 98.947917 " transform="matrix(0.75,0,0,0.75,0,0)"/>
<path style="fill:none;stroke-width:1.5;stroke-linecap:butt;stroke-linejoin:miter;stroke:rgb(100%,100%,100%);stroke-opacity:1;stroke-miterlimit:2;" d="M 59.088542 88.71875 L 62.171875 94.322917 L 65.255208 93.473958 L 68.333333 90.125 L 71.416667 93.994792 L 74.5 94.307292 L 77.583333 94.192708 L 80.661458 94.234375 L 86.828125 94.338542 L 89.90625 94.21875 L 92.989583 94.28125 L 96.072917 94.348958 L 99.151042 94.291667 L 102.234375 94.286458 L 105.317708 94.208333 L 108.395833 94.3125 L 111.479167 94.15625 L 114.5625 94.322917 L 117.640625 94.182292 L 120.723958 93.916667 L 123.807292 93.838542 L 126.885417 91.244792 L 129.96875 93.484375 L 133.052083 81.291667 L 136.130208 91.484375 L 139.213542 93.208333 L 142.296875 93.515625 L 145.375 92.671875 L 148.458333 94.109375 L 151.541667 94.348958 L 154.625 94.364583 L 157.703125 94.192708 L 160.786458 94.0625 L 163.869792 94.354167 L 166.947917 94.359375 L 170.03125 94.359375 L 173.114583 94.322917 L 176.192708 94.338542 L 179.276042 94.364583 L 182.359375 94.359375 L 185.4375 94.364583 L 188.520833 94.364583 L 191.604167 94.369792 L 194.682292 94.369792 L 197.765625 94.364583 L 200.848958 94.369792 L 240.911458 94.369792 " transform="matrix(0.75,0,0,0.75,0,0)"/>
<path style="fill:none;stroke-width:1.5;stroke-linecap:butt;stroke-linejoin:miter;stroke:rgb(100%,100%,100%);stroke-opacity:1;stroke-miterlimit:2;" d="M 59.088542 85.682292 L 62.171875 89.739583 L 65.255208 89.510417 L 68.333333 88.036458 L 71.416667 89.40625 L 74.5 89.677083 L 77.583333 89.75 L 80.661458 89.588542 L 83.744792 89.666667 L 86.828125 89.776042 L 89.90625 89.739583 L 92.989583 89.677083 L 96.072917 89.786458 L 99.151042 89.552083 L 102.234375 89.671875 L 105.317708 89.723958 L 108.395833 89.510417 L 111.479167 89.666667 L 114.5625 89.78125 L 117.640625 89.734375 L 120.723958 88.177083 L 123.807292 89.223958 L 126.885417 87.4375 L 129.96875 82.223958 L 133.052083 64.09375 L 136.130208 86.161458 L 139.213542 89.640625 L 142.296875 89.15625 L 145.375 89.458333 L 148.458333 89.572917 L 151.541667 89.682292 L 154.625 89.729167 L 157.703125 89.354167 L 160.786458 89.520833 L 163.869792 89.552083 L 166.947917 89.729167 L 170.03125 89.5 L 173.114583 89.723958 L 176.192708 89.723958 L 179.276042 89.786458 L 182.359375 89.765625 L 185.4375 89.770833 L 188.520833 89.765625 L 191.604167 89.786458 L 194.682292 89.786458 L 200.848958 89.776042 L 203.927083 89.786458 L 207.010417 89.78125 L 210.09375 89.78125 L 213.171875 89.786458 L 216.255208 89.78125 L 219.338542 89.78125 L 222.416667 89.786458 L 225.5 89.78125 L 228.583333 89.791667 L 231.666667 89.786458 L 240.911458 89.786458 " transform="matrix(0.75,0,0,0.75,0,0)"/>
<path style="fill:none;stroke-width:1.5;stroke-linecap:butt;stroke-linejoin:miter;stroke:rgb(100%,100%,100%);stroke-opacity:1;stroke-miterlimit:2;" d="M 59.088542 79.505208 L 62.171875 84.703125 L 65.255208 82.958333 L 68.333333 85.125 L 71.416667 85.192708 L 74.5 85.130208 L 77.583333 85.046875 L 80.661458 85.03125 L 83.744792 85.166667 L 86.828125 85.182292 L 89.90625 85.09375 L 92.989583 85.197917 L 96.072917 85.208333 L 99.151042 85.208333 L 102.234375 85.177083 L 105.317708 85.192708 L 108.395833 85.208333 L 111.479167 85.177083 L 114.5625 85.177083 L 117.640625 85.109375 L 120.723958 85.197917 L 123.807292 84.338542 L 126.885417 84.989583 L 129.96875 84.078125 L 133.052083 76.28125 L 136.130208 84.942708 L 139.213542 85.067708 L 142.296875 85 L 145.375 85.197917 L 148.458333 85 L 151.541667 85.151042 L 154.625 85.130208 L 157.703125 85.098958 L 160.786458 84.90625 L 163.869792 85.192708 L 166.947917 85.1875 L 170.03125 85.151042 L 173.114583 85.1875 L 176.192708 85.166667 L 179.276042 85.203125 L 182.359375 85.192708 L 185.4375 85.1875 L 188.520833 85.192708 L 191.604167 85.208333 L 194.682292 85.203125 L 197.765625 85.208333 L 222.416667 85.208333 L 225.5 85.197917 L 228.583333 85.208333 L 240.911458 85.208333 " transform="matrix(0.75,0,0,0.75,0,0)"/>
<path style="fill:none;stroke-width:1.5;stroke-linecap:butt;stroke-linejoin:miter;stroke:rgb(100%,100%,100%);stroke-opacity:1;stroke-miterlimit:2;" d="M 59.088542 80.21875 L 62.171875 80.130208 L 65.255208 76.598958 L 68.333333 79.213542 L 71.416667 80.572917 L 74.5 80.369792 L 77.583333 80.541667 L 80.661458 80.546875 L 83.744792 80.59375 L 86.828125 80.578125 L 89.90625 80.578125 L 92.989583 80.59375 L 96.072917 80.619792 L 102.234375 80.619792 L 105.317708 80.614583 L 108.395833 80.619792 L 111.479167 80.572917 L 114.5625 80.625 L 117.640625 80.614583 L 120.723958 79.869792 L 123.807292 80.317708 L 126.885417 80.348958 L 129.96875 68.338542 L 133.052083 73.614583 L 136.130208 79.994792 L 139.213542 79.864583 L 142.296875 80.557292 L 145.375 80.515625 L 148.458333 80.515625 L 151.541667 80.5625 L 154.625 80.567708 L 157.703125 80.484375 L 160.786458 80.588542 L 163.869792 80.619792 L 166.947917 80.557292 L 170.03125 80.5625 L 173.114583 80.619792 L 176.192708 80.526042 L 179.276042 80.5625 L 182.359375 80.614583 L 185.4375 80.625 L 188.520833 80.609375 L 191.604167 80.614583 L 194.682292 80.619792 L 197.765625 80.630208 L 200.848958 80.619792 L 203.927083 80.625 L 207.010417 80.625 L 210.09375 80.630208 L 213.171875 80.625 L 216.255208 80.625 L 219.338542 80.619792 L 222.416667 80.619792 L 225.5 80.630208 L 228.583333 80.625 L 231.666667 80.625 L 234.744792 80.630208 L 240.911458 80.630208 " transform="matrix(0.75,0,0,0.75,0,0)"/>
<path style="fill:none;stroke-width:1.5;stroke-linecap:butt;stroke-linejoin:miter;stroke:rgb(100%,100%,100%);stroke-opacity:1;stroke-miterlimit:2;" d="M 59.088542 74.671875 L 62.171875 75.885417 L 65.255208 75.348958 L 68.333333 75.963542 L 71.416667 75.453125 L 74.5 75.916667 L 77.583333 76 L 80.661458 75.989583 L 83.744792 76.015625 L 86.828125 76.036458 L 89.90625 76.046875 L 92.989583 76.026042 L 96.072917 75.984375 L 99.151042 76.010417 L 105.317708 76.052083 L 108.395833 76.010417 L 111.479167 75.994792 L 114.5625 76.026042 L 117.640625 75.973958 L 120.723958 75.9375 L 123.807292 75.864583 L 126.885417 75.979167 L 129.96875 73.947917 L 133.052083 76.036458 L 136.130208 75.708333 L 139.213542 75.322917 L 142.296875 75.713542 L 145.375 75.817708 L 148.458333 75.223958 L 151.541667 75.713542 L 154.625 75.958333 L 157.703125 75.942708 L 160.786458 75.848958 L 163.869792 76.026042 L 166.947917 76.03125 L 170.03125 76.041667 L 173.114583 76.026042 L 176.192708 75.989583 L 179.276042 75.973958 L 182.359375 76.041667 L 185.4375 76.046875 L 188.520833 76.005208 L 191.604167 76.052083 L 194.682292 76.052083 L 197.765625 76.046875 L 200.848958 76.052083 L 203.927083 76.052083 L 207.010417 76.036458 L 210.09375 76.046875 L 213.171875 76.052083 L 216.255208 76.052083 L 219.338542 76.046875 L 222.416667 76.046875 L 225.5 76.052083 L 240.911458 76.052083 " transform="matrix(0.75,0,0,0.75,0,0)"/>
<path style="fill:none;stroke-width:1.5;stroke-linecap:butt;stroke-linejoin:miter;stroke:rgb(100%,100%,100%);stroke-opacity:1;stroke-miterlimit:2;" d="M 59.088542 71.380208 L 62.171875 71.151042 L 65.255208 70.885417 L 68.333333 71.421875 L 71.416667 71.3125 L 74.5 71.307292 L 77.583333 71.28125 L 80.661458 71.380208 L 83.744792 71.380208 L 86.828125 71.4375 L 89.90625 71.395833 L 92.989583 71.453125 L 96.072917 71.46875 L 99.151042 71.411458 L 102.234375 71.463542 L 105.317708 71.463542 L 108.395833 71.46875 L 111.479167 71.447917 L 114.5625 71.234375 L 117.640625 71.338542 L 120.723958 71.140625 L 123.807292 71.46875 L 126.885417 71.109375 L 129.96875 68.75 L 133.052083 66.864583 L 136.130208 71.078125 L 139.213542 71.114583 L 142.296875 71.328125 L 145.375 71.3125 L 148.458333 71.46875 L 151.541667 71.296875 L 154.625 71.401042 L 157.703125 71.395833 L 160.786458 71.338542 L 163.869792 71.463542 L 166.947917 71.447917 L 170.03125 71.354167 L 173.114583 71.463542 L 176.192708 71.4375 L 179.276042 71.453125 L 182.359375 71.473958 L 185.4375 71.46875 L 188.520833 71.416667 L 191.604167 71.46875 L 194.682292 71.473958 L 197.765625 71.463542 L 200.848958 71.46875 L 203.927083 71.473958 L 207.010417 71.473958 L 210.09375 71.46875 L 213.171875 71.473958 L 219.338542 71.473958 L 222.416667 71.46875 L 225.5 71.46875 L 228.583333 71.473958 L 240.911458 71.473958 " transform="matrix(0.75,0,0,0.75,0,0)"/>
<path style="fill:none;stroke-width:1.5;stroke-linecap:butt;stroke-linejoin:miter;stroke:rgb(100%,100%,100%);stroke-opacity:1;stroke-miterlimit:2;" d="M 59.088542 66.838542 L 62.171875 66.859375 L 65.255208 66.015625 L 68.333333 64.854167 L 71.416667 66.885417 L 74.5 66.822917 L 77.583333 66.880208 L 80.661458 66.604167 L 83.744792 66.869792 L 86.828125 66.848958 L 89.90625 66.838542 L 92.989583 66.838542 L 96.072917 66.869792 L 99.151042 66.864583 L 102.234375 66.84375 L 105.317708 66.854167 L 108.395833 66.854167 L 111.479167 66.885417 L 114.5625 66.635417 L 117.640625 66.505208 L 120.723958 66.088542 L 123.807292 66.671875 L 126.885417 66.807292 L 129.96875 64.614583 L 133.052083 63.989583 L 136.130208 66.786458 L 139.213542 66.5 L 142.296875 66.734375 L 145.375 66.755208 L 148.458333 66.796875 L 151.541667 66.890625 L 154.625 66.588542 L 157.703125 66.703125 L 160.786458 66.84375 L 163.869792 66.875 L 166.947917 66.838542 L 170.03125 66.84375 L 173.114583 66.885417 L 176.192708 66.885417 L 179.276042 66.890625 L 185.4375 66.890625 L 188.520833 66.885417 L 191.604167 66.890625 L 194.682292 66.890625 L 197.765625 66.895833 L 200.848958 66.890625 L 203.927083 66.890625 L 207.010417 66.895833 L 210.09375 66.890625 L 213.171875 66.895833 L 216.255208 66.890625 L 237.828125 66.890625 L 240.911458 66.895833 " transform="matrix(0.75,0,0,0.75,0,0)"/>
<path style="fill:none;stroke-width:1.5;stroke-linecap:butt;stroke-linejoin:miter;stroke:rgb(100%,100%,100%);stroke-opacity:1;stroke-miterlimit:2;" d="M 59.088542 62.302083 L 62.171875 62.244792 L 65.255208 61.666667 L 68.333333 61.833333 L 71.416667 61.755208 L 74.5 62.223958 L 77.583333 62.03125 L 80.661458 62.296875 L 83.744792 62.291667 L 86.828125 62.140625 L 89.90625 62.296875 L 92.989583 62.223958 L 96.072917 62.302083 L 99.151042 62.197917 L 102.234375 62.244792 L 105.317708 62.234375 L 108.395833 62.265625 L 111.479167 62.203125 L 114.5625 61.802083 L 117.640625 61.854167 L 120.723958 60.578125 L 123.807292 62.276042 L 126.885417 61.052083 L 129.96875 59.088542 L 133.052083 62.265625 L 136.130208 60.098958 L 139.213542 61.302083 L 142.296875 62.255208 L 145.375 62.161458 L 148.458333 62.286458 L 151.541667 62.302083 L 154.625 61.96875 L 157.703125 62.302083 L 160.786458 62.135417 L 163.869792 61.942708 L 166.947917 62.3125 L 170.03125 62.291667 L 173.114583 62.291667 L 176.192708 62.302083 L 182.359375 62.3125 L 240.911458 62.3125 " transform="matrix(0.75,0,0,0.75,0,0)"/>
<path style="fill:none;stroke-width:1;stroke-linecap:butt;stroke-linejoin:miter;stroke:rgb(0%,0%,0%);stroke-opacity:1;stroke-miterlimit:2;" d="M 49.5 250 L 250.5 250 " transform="matrix(0.75,0,0,0.75,0,0)"/>
<path style="fill:none;stroke-width:1;stroke-linecap:butt;stroke-linejoin:miter;stroke:rgb(0%,0%,0%);stroke-opacity:1;stroke-miterlimit:2;" d="M 50 250.5 L 50 49.5 " transform="matrix(0.75,0,0,0.75,0,0)"/>
<path style="fill:none;stroke-width:1;stroke-linecap:butt;stroke-linejoin:miter;stroke:rgb(0%,0%,0%);stroke-opacity:1;stroke-miterlimit:2;" d="M 49.5 50 L 250.5 50 " transform="matrix(0.75,0,0,0.75,0,0)"/>
<path style="fill:none;stroke-width:1;stroke-linecap:butt;stroke-linejoin:miter;stroke:rgb(0%,0%,0%);stroke-opacity:1;stroke-miterlimit:2;" d="M 250 250.5 L 250 49.5 " transform="matrix(0.75,0,0,0.75,0,0)"/>
</g>
</svg>
